<?xml version="1.0" standalone="no"?>
<!DOCTYPE svg PUBLIC "-//W3C//DTD SVG 20010904//EN"
 "http://www.w3.org/TR/2001/REC-SVG-20010904/DTD/svg10.dtd">
<svg version="1.0" xmlns="http://www.w3.org/2000/svg"
 width="1200.000000pt" height="1200.000000pt" viewBox="0 0 1200.000000 1200.000000"
 preserveAspectRatio="xMidYMid meet">
<metadata>
Created by potrace 1.14, written by Peter Selinger 2001-2017
</metadata>
<g transform="translate(0.000000,1200.000000) scale(0.100000,-0.100000)"
fill="#000000" stroke="none">
<path d="M4409 11480 c-1 -5 -2 -13 -3 -17 -1 -5 -5 -29 -9 -54 -4 -25 -10
-59 -13 -75 -16 -85 -76 -425 -93 -529 -12 -66 -24 -133 -27 -150 -3 -16 -7
-34 -8 -40 -4 -24 -22 -35 -143 -85 -169 -71 -457 -217 -618 -314 -540 -326
-1022 -757 -1389 -1246 -47 -63 -90 -120 -94 -125 -47 -58 -222 -339 -300
-480 -61 -113 -184 -366 -227 -471 -90 -215 -198 -544 -240 -729 -24 -106 -63
-294 -70 -345 -4 -25 -9 -54 -11 -65 -2 -10 -6 -37 -10 -59 -3 -22 -7 -43 -9
-46 -2 -3 -6 -29 -10 -59 -4 -30 -8 -62 -10 -71 -26 -134 -27 -876 -1 -1015 2
-11 7 -51 11 -90 4 -38 9 -79 11 -89 2 -13 -9 -32 -34 -54 -20 -19 -86 -80
-146 -136 -60 -55 -117 -108 -127 -117 -18 -15 -181 -166 -311 -288 -37 -35
-68 -70 -68 -77 0 -7 15 -39 34 -71 18 -32 77 -134 131 -228 54 -93 140 -244
193 -335 52 -91 103 -178 112 -195 10 -16 50 -86 90 -155 40 -68 82 -140 93
-160 10 -19 71 -125 135 -235 64 -110 121 -209 127 -220 5 -11 18 -31 26 -45
13 -21 338 -582 420 -726 121 -212 245 -414 253 -414 6 0 196 68 423 150 227
83 417 150 423 150 6 0 71 -44 143 -98 268 -199 468 -322 762 -467 388 -191
735 -314 1123 -400 132 -29 301 -59 422 -75 47 -6 99 -13 115 -16 17 -2 59 -6
95 -9 36 -2 110 -7 165 -11 181 -13 561 -7 715 11 19 2 62 6 95 10 66 7 114
13 160 20 17 3 48 7 70 10 84 12 345 67 455 96 63 16 124 32 135 34 75 17 465
154 615 217 129 54 449 221 597 312 133 81 405 268 447 308 11 10 27 16 35 14
28 -8 734 -227 791 -245 112 -37 101 -41 156 55 27 47 56 98 65 112 25 42 316
545 707 1222 195 338 363 629 373 645 10 17 24 41 32 55 7 14 85 149 172 300
235 408 219 376 197 392 -11 7 -40 31 -65 53 -24 22 -53 47 -64 55 -24 20
-201 166 -233 193 -14 12 -65 55 -115 97 -49 41 -96 81 -103 88 -8 7 -29 24
-48 39 -51 38 -55 52 -45 130 6 37 13 97 16 133 4 36 9 76 11 90 22 131 22
822 0 892 -3 7 -7 47 -10 88 -4 41 -8 86 -10 100 -2 14 -7 46 -10 71 -4 25 -9
57 -11 70 -2 13 -11 63 -19 111 -21 117 -82 386 -107 467 -90 293 -119 373
-202 571 -159 380 -433 846 -668 1135 -335 411 -687 740 -1086 1013 -243 167
-607 365 -864 471 -84 35 -79 28 -105 146 -8 39 -17 77 -19 85 -23 101 -129
573 -142 630 -9 41 -20 80 -26 87 -12 16 -3226 19 -3228 3z m2953 -263 c12
-10 100 -357 124 -487 3 -14 7 -31 10 -39 4 -13 40 -169 50 -216 14 -72 27
-114 37 -118 7 -3 66 -28 132 -55 205 -85 264 -112 399 -180 607 -304 1164
-768 1585 -1322 85 -111 235 -332 296 -435 138 -233 289 -555 382 -815 69
-192 160 -533 189 -709 3 -14 9 -48 14 -76 8 -45 15 -87 25 -165 2 -14 7 -56
11 -95 3 -38 8 -79 10 -90 6 -32 17 -339 17 -480 1 -119 -9 -335 -18 -395 -2
-14 -6 -52 -10 -85 -4 -33 -9 -68 -11 -79 -2 -10 -6 -44 -10 -75 -3 -31 -8
-58 -9 -61 -2 -3 -6 -30 -10 -60 -4 -30 -9 -58 -11 -61 -5 -9 73 -78 376 -329
135 -113 253 -212 264 -222 23 -21 21 -25 -48 -142 -30 -50 -146 -251 -258
-446 -252 -436 -327 -565 -486 -840 -68 -118 -132 -228 -142 -245 -59 -103
-132 -227 -159 -273 -17 -29 -31 -56 -31 -59 0 -4 -6 -14 -14 -22 -7 -9 -26
-38 -41 -66 -70 -128 -151 -255 -163 -255 -7 0 -59 14 -115 31 -56 17 -115 35
-132 39 -69 19 -211 62 -230 70 -11 5 -29 11 -40 13 -11 3 -87 26 -170 51
-142 43 -150 45 -174 29 -26 -17 -202 -154 -211 -164 -16 -17 -216 -150 -350
-230 -582 -349 -1189 -563 -1830 -644 -30 -4 -62 -9 -71 -10 -150 -28 -823
-28 -1049 0 -139 18 -417 66 -489 84 -20 6 -47 12 -61 15 -42 7 -250 66 -350
98 -241 77 -635 250 -823 362 -43 25 -80 46 -83 46 -9 0 -279 175 -365 237
-122 88 -302 228 -319 247 -7 9 -19 16 -26 16 -13 0 -161 -53 -549 -196 -99
-36 -191 -69 -205 -74 -14 -4 -32 -11 -41 -15 -13 -5 -29 16 -74 92 -32 54
-84 142 -117 196 -32 54 -58 100 -58 102 0 2 -46 81 -102 177 -55 95 -109 187
-118 203 -9 17 -111 192 -225 390 -114 198 -293 509 -398 690 -104 182 -198
342 -208 357 -10 15 -19 30 -19 33 0 3 -12 24 -26 47 l-27 42 65 60 c35 34
127 120 203 191 77 72 175 164 220 206 44 41 100 93 124 116 l44 40 -11 74
c-7 41 -14 85 -17 99 -2 13 -7 54 -10 90 -4 36 -8 72 -10 80 -21 76 -21 796 0
909 1 9 6 52 9 96 4 44 9 87 11 95 2 8 7 35 10 60 3 25 13 83 22 130 8 47 17
96 20 110 61 338 202 755 384 1128 522 1072 1444 1896 2592 2317 50 18 60 32
70 95 3 19 10 60 16 90 5 30 12 71 16 90 3 19 12 71 20 115 8 44 16 96 19 115
3 19 12 71 21 115 8 44 18 96 21 115 2 19 9 59 15 88 l10 52 1338 0 c1032 -1
1342 -4 1353 -13z"/>
<path d="M5820 9502 c0 -200 -3 -259 -12 -259 -17 0 -142 -13 -188 -19 -19 -2
-53 -7 -75 -10 -234 -31 -586 -130 -783 -220 -29 -13 -55 -24 -58 -24 -11 0
-239 -116 -314 -160 -165 -95 -381 -249 -505 -359 -55 -49 -272 -267 -315
-316 -317 -364 -565 -831 -690 -1300 -30 -111 -68 -302 -76 -377 -3 -35 -8
-66 -10 -69 -24 -42 -23 -758 1 -799 1 -3 6 -27 10 -55 4 -27 8 -61 10 -75 30
-212 128 -533 243 -793 36 -81 63 -149 61 -150 -7 -6 -113 -69 -144 -87 -17
-9 -87 -50 -155 -90 -69 -40 -138 -80 -153 -88 -40 -20 -42 -34 -14 -84 95
-168 160 -279 166 -282 3 -2 119 60 256 139 138 79 253 141 257 138 4 -2 39
-47 78 -99 212 -286 498 -559 785 -751 434 -291 880 -460 1417 -537 99 -15
221 -21 408 -21 238 1 383 11 526 39 12 2 38 7 58 10 19 3 57 11 83 17 27 6
59 13 73 15 124 23 405 118 575 194 190 85 485 254 605 347 159 123 251 203
375 328 83 83 159 162 170 175 11 14 38 48 60 75 22 28 71 92 109 143 l68 92
52 -29 c28 -16 67 -38 86 -49 19 -11 91 -52 160 -92 69 -39 144 -82 167 -95
l41 -24 24 37 c13 20 30 48 38 62 7 14 42 73 76 132 46 78 59 109 51 116 -7 6
-77 48 -157 95 -187 109 -216 126 -278 162 -29 17 -52 33 -52 37 0 5 20 53 45
108 134 298 233 637 261 893 3 29 7 57 9 64 19 59 27 518 12 673 -5 47 -10 99
-12 115 -5 57 -24 169 -51 301 -19 95 -105 385 -133 449 -5 11 -17 40 -27 65
-36 92 -57 138 -121 264 -35 71 -73 142 -84 157 -10 15 -19 30 -19 34 0 8
-153 238 -184 277 -11 14 -31 39 -43 55 -12 15 -31 39 -42 53 -12 14 -38 45
-59 70 -46 55 -259 269 -328 330 -248 217 -581 425 -864 540 -30 12 -68 28
-85 35 -143 62 -497 160 -650 180 -16 3 -61 9 -100 14 -38 6 -104 13 -145 17
-41 3 -78 8 -82 11 -5 2 -8 119 -8 259 l0 254 -200 0 -200 0 0 -258z m-2
-1438 l2 -579 -216 0 c-119 0 -220 -3 -226 -6 -5 -3 22 -66 62 -145 158 -305
288 -557 367 -709 46 -88 113 -219 150 -292 37 -72 71 -130 74 -127 4 2 58
102 120 222 62 119 133 258 159 307 26 50 102 198 170 330 67 132 143 277 167
323 25 46 42 86 39 90 -4 3 -110 6 -236 7 l-230 0 0 581 0 581 48 -3 c72 -6
270 -40 398 -70 68 -15 274 -81 339 -109 353 -146 631 -332 890 -593 244 -246
390 -454 537 -767 49 -106 137 -345 152 -415 44 -200 56 -264 61 -310 4 -30 8
-62 10 -70 16 -59 22 -389 10 -523 -21 -244 -77 -494 -159 -714 -37 -99 -88
-216 -101 -231 -1 -1 -41 20 -88 48 -47 27 -87 50 -90 50 -2 0 -46 25 -96 55
-51 30 -93 55 -95 55 -2 0 -34 18 -70 40 -36 22 -70 40 -76 40 -5 0 -10 5 -10
10 0 6 -4 10 -9 10 -12 0 -371 208 -390 225 -14 13 -3 37 81 180 84 143 118
209 110 216 -6 7 -86 12 -357 24 -213 10 -333 15 -420 20 -49 2 -139 7 -200
10 -60 3 -159 8 -220 11 -228 12 -227 12 -222 -7 4 -13 267 -430 346 -548 9
-13 21 -31 26 -39 20 -31 226 -350 294 -457 39 -60 79 -120 89 -133 l18 -24
46 79 c61 103 106 182 143 249 17 30 36 59 42 65 8 8 56 -15 174 -84 90 -52
180 -104 199 -114 19 -11 114 -66 210 -123 96 -57 189 -110 205 -118 63 -33
150 -94 147 -104 -2 -6 -38 -56 -81 -112 -91 -117 -310 -339 -426 -433 -263
-211 -662 -416 -965 -494 -25 -6 -54 -13 -65 -16 -57 -15 -266 -52 -324 -58
-36 -4 -79 -9 -96 -11 -43 -5 -361 -6 -420 0 -78 6 -220 26 -278 37 -29 6 -63
12 -77 15 -14 2 -36 7 -50 11 -14 3 -29 7 -35 8 -45 11 -235 70 -291 90 -171
64 -519 253 -624 338 -15 12 -40 31 -56 42 -181 128 -577 554 -541 583 11 8
80 49 187 110 19 11 121 69 225 129 105 61 261 151 348 202 88 50 163 89 167
86 5 -3 33 -47 62 -98 29 -50 58 -100 63 -109 6 -9 29 -51 53 -92 23 -42 46
-76 50 -76 7 0 221 329 565 868 48 75 115 179 147 230 62 95 73 118 55 115 -5
0 -82 -4 -170 -8 -227 -9 -317 -13 -425 -20 -52 -3 -149 -7 -215 -10 -130 -6
-207 -10 -415 -21 -74 -4 -147 -7 -162 -8 -40 -2 -43 -11 -18 -53 13 -21 56
-96 98 -168 41 -71 83 -144 93 -161 l19 -31 -242 -140 c-134 -78 -283 -164
-333 -192 -49 -29 -97 -56 -105 -61 -72 -44 -263 -150 -265 -148 -27 31 -123
269 -165 409 -121 406 -146 820 -74 1229 127 717 543 1350 1159 1760 75 50
350 195 440 232 144 60 401 137 510 154 22 3 59 10 81 15 23 5 73 12 110 15
38 4 70 8 72 9 2 2 11 2 20 1 16 -3 17 -48 20 -582z"/>
</g>
</svg>
